<?xml version="1.0" ?><!DOCTYPE svg  PUBLIC '-//W3C//DTD SVG 1.1//EN'  'http://www.w3.org/Graphics/SVG/1.1/DTD/svg11.dtd'><svg enable-background="new 0 0 32 32" height="32px" id="Layer_1" version="1.1" viewBox="0 0 32 32" width="32px" xml:space="preserve" xmlns="http://www.w3.org/2000/svg" xmlns:xlink="http://www.w3.org/1999/xlink"><g><polyline fill="none" points="   649,137.999 675,137.999 675,155.999 661,155.999  " stroke="#FFFFFF" stroke-linecap="round" stroke-linejoin="round" stroke-miterlimit="10" stroke-width="2"/><polyline fill="none" points="   653,155.999 649,155.999 649,141.999  " stroke="#FFFFFF" stroke-linecap="round" stroke-linejoin="round" stroke-miterlimit="10" stroke-width="2"/><polyline fill="none" points="   661,156 653,162 653,156  " stroke="#FFFFFF" stroke-linecap="round" stroke-linejoin="round" stroke-miterlimit="10" stroke-width="2"/></g><g><g><path d="M23,25H11c-4.962,0-9-4.038-9-9s4.038-9,9-9s9,4.037,9,9c0,0.552-0.447,1-1,1s-1-0.448-1-1c0-3.859-3.14-7-7-7    s-7,3.14-7,7c0,3.86,3.14,7,7,7h12c2.757,0,5-2.243,5-5s-2.243-5-5-5c-0.553,0-1-0.448-1-1s0.447-1,1-1c3.859,0,7,3.14,7,7    C30,21.859,26.859,25,23,25z"/></g></g></svg>